<svg xmlns="http://www.w3.org/2000/svg" width="1600" height="900" viewBox="0 0 1600 900" role="img" aria-label="Ghost Mouse Click Detector Tool hero illustration">
  <defs>
    <!-- Background gradients -->
    <radialGradient id="bgRad" cx="55%" cy="35%" r="75%">
      <stop offset="0" stop-color="#1c4ed8" stop-opacity="0.28"></stop>
      <stop offset="0.45" stop-color="#0b2555" stop-opacity="0.55"></stop>
      <stop offset="1" stop-color="#050815" stop-opacity="1"></stop>
    </radialGradient>
    <linearGradient id="mist" x1="0" y1="0" x2="1" y2="1">
      <stop offset="0" stop-color="#7dd3fc" stop-opacity="0.22"></stop>
      <stop offset="1" stop-color="#a78bfa" stop-opacity="0.08"></stop>
    </linearGradient>

    <!-- Mouse gradients -->
    <linearGradient id="mouseTop" x1="0" y1="0" x2="1" y2="1">
      <stop offset="0" stop-color="#f8fafc"></stop>
      <stop offset="0.55" stop-color="#cbd5e1"></stop>
      <stop offset="1" stop-color="#64748b"></stop>
    </linearGradient>
    <linearGradient id="mouseSide" x1="0" y1="0" x2="1" y2="0">
      <stop offset="0" stop-color="#475569"></stop>
      <stop offset="1" stop-color="#0f172a"></stop>
    </linearGradient>

    <!-- Glow -->
    <filter id="softGlow" x="-60%" y="-60%" width="220%" height="220%">
      <feGaussianBlur stdDeviation="10" result="b"></feGaussianBlur>
      <feColorMatrix in="b" type="matrix" values="1 0 0 0 0
                0 1 0 0 0
                0 0 1 0 0
                0 0 0 0.55 0" result="g"></feColorMatrix>
      <feMerge>
        <feMergeNode in="g"></feMergeNode>
        <feMergeNode in="SourceGraphic"></feMergeNode>
      </feMerge>
    </filter>

    <filter id="blur8" x="-40%" y="-40%" width="180%" height="180%">
      <feGaussianBlur stdDeviation="8"></feGaussianBlur>
    </filter>

    <!-- Ghost gradient -->
    <linearGradient id="ghostFill" x1="0" y1="0" x2="0" y2="1">
      <stop offset="0" stop-color="#e0f2fe" stop-opacity="0.95"></stop>
      <stop offset="1" stop-color="#93c5fd" stop-opacity="0.65"></stop>
    </linearGradient>

    <!-- Text glow -->
    <filter id="textGlow" x="-50%" y="-50%" width="200%" height="200%">
      <feGaussianBlur stdDeviation="6" result="b"></feGaussianBlur>
      <feMerge>
        <feMergeNode in="b"></feMergeNode>
        <feMergeNode in="SourceGraphic"></feMergeNode>
      </feMerge>
    </filter>

    <!-- Subtle grain -->
    <filter id="grain" x="-20%" y="-20%" width="140%" height="140%">
      <feTurbulence type="fractalNoise" baseFrequency="0.9" numOctaves="2" stitchTiles="stitch" result="n"></feTurbulence>
      <feColorMatrix type="matrix" values="
        1 0 0 0 0
        0 1 0 0 0
        0 0 1 0 0
        0 0 0 0.08 0"></feColorMatrix>
    </filter>

    <!-- UI panel gradient -->
    <linearGradient id="panel" x1="0" y1="0" x2="1" y2="1">
      <stop offset="0" stop-color="#0b1220" stop-opacity="0.75"></stop>
      <stop offset="1" stop-color="#0b1220" stop-opacity="0.25"></stop>
    </linearGradient>
  </defs>

  <!-- Background -->
  <rect width="1600" height="900" fill="url(#bgRad)"></rect>
  <path d="M-40,650 C240,520 420,760 650,640 C900,510 1060,760 1320,610 C1490,510 1680,560 1700,560 L1700,940 L-40,940 Z" fill="url(#mist)" filter="url(#blur8)"></path>
  <g filter="url(#grain)" opacity="0.9">
    <rect width="1600" height="900" fill="transparent"></rect>
  </g>

  <!-- Floating bokeh -->
  <g opacity="0.55" filter="url(#blur8)">
    <circle cx="220" cy="150" r="30" fill="#93c5fd"></circle>
    <circle cx="1380" cy="210" r="26" fill="#60a5fa"></circle>
    <circle cx="1180" cy="120" r="18" fill="#a78bfa"></circle>
    <circle cx="420" cy="260" r="16" fill="#7dd3fc"></circle>
  </g>

  <!-- Title -->
  <g filter="url(#textGlow)">
    <text x="800" y="150" text-anchor="middle" font-family="system-ui, -apple-system, Segoe UI, Roboto, Arial" font-weight="800" font-size="92" fill="#dbeafe" opacity="0.95">Ghost Mouse</text>
    <text x="800" y="220" text-anchor="middle" font-family="system-ui, -apple-system, Segoe UI, Roboto, Arial" font-weight="700" font-size="58" fill="#7dd3fc" opacity="0.95">Click Detector Tool</text>
  </g>

  <!-- Left UI panel (like the original) -->
  <g transform="translate(140,315)">
    <rect x="0" y="0" width="320" height="250" rx="24" fill="url(#panel)" stroke="#1f3b7a" stroke-opacity="0.6"></rect>
    <rect x="22" y="22" width="276" height="36" rx="12" fill="#0b2555" opacity="0.65"></rect>
    <circle cx="44" cy="40" r="6" fill="#fb7185"></circle>
    <circle cx="64" cy="40" r="6" fill="#fbbf24"></circle>
    <circle cx="84" cy="40" r="6" fill="#34d399"></circle>
    <!-- Cursor -->
    <path d="M120 84 L120 190 L152 170 L168 205 L196 192 L180 158 L216 146 Z" fill="#e0f2fe" opacity="0.95"></path>
    <!-- Mini bars -->
    <g opacity="0.55">
      <rect x="210" y="160" width="18" height="54" rx="6" fill="#60a5fa"></rect>
      <rect x="235" y="140" width="18" height="74" rx="6" fill="#7dd3fc"></rect>
      <rect x="260" y="170" width="18" height="44" rx="6" fill="#93c5fd"></rect>
    </g>
  </g>

  <!-- Exclamation marks -->
  <g opacity="0.95">
    <path d="M470 290 L495 240 L520 290" fill="none" stroke="#fb7185" stroke-width="16" stroke-linecap="round" stroke-linejoin="round"></path>
    <circle cx="495" cy="322" r="8" fill="#fb7185"></circle>
    <path d="M1110 320 L1135 270 L1160 320" fill="none" stroke="#fb7185" stroke-width="16" stroke-linecap="round" stroke-linejoin="round"></path>
    <circle cx="1135" cy="352" r="8" fill="#fb7185"></circle>
  </g>

  <!-- Crosshair target behind mouse -->
  <g transform="translate(770,360)" opacity="0.5" filter="url(#softGlow)">
    <circle cx="0" cy="0" r="52" fill="none" stroke="#7dd3fc" stroke-width="10" opacity="0.35"></circle>
    <circle cx="0" cy="0" r="90" fill="none" stroke="#7dd3fc" stroke-width="10" opacity="0.18"></circle>
    <line x1="-120" y1="0" x2="-70" y2="0" stroke="#7dd3fc" stroke-width="10" stroke-linecap="round" opacity="0.22"></line>
    <line x1="70" y1="0" x2="120" y2="0" stroke="#7dd3fc" stroke-width="10" stroke-linecap="round" opacity="0.22"></line>
    <line x1="0" y1="-120" x2="0" y2="-70" stroke="#7dd3fc" stroke-width="10" stroke-linecap="round" opacity="0.22"></line>
    <line x1="0" y1="70" x2="0" y2="120" stroke="#7dd3fc" stroke-width="10" stroke-linecap="round" opacity="0.22"></line>
  </g>

  <!-- Mist on floor -->
  <path d="M200,760 C420,680 610,820 820,740 C1050,650 1210,830 1420,720" fill="none" stroke="#7dd3fc" stroke-width="26" stroke-linecap="round" opacity="0.08" filter="url(#blur8)"></path>
  <path d="M260,790 C500,720 640,860 860,785 C1100,705 1260,860 1500,760" fill="none" stroke="#a78bfa" stroke-width="22" stroke-linecap="round" opacity="0.06" filter="url(#blur8)"></path>

  <!-- Ghost Left -->
  <g transform="translate(380,520)">
    <path d="M0,160
             C0,72 72,0 160,0
             C248,0 320,72 320,160
             L320,290
             C320,312 298,328 278,316
             L240,292 202,316 160,292 118,316 78,292 40,316
             C22,328 0,312 0,290 Z" fill="url(#ghostFill)" filter="url(#softGlow)"></path>
    <ellipse cx="110" cy="145" rx="18" ry="26" fill="#0b1220" opacity="0.55"></ellipse>
    <ellipse cx="210" cy="145" rx="18" ry="26" fill="#0b1220" opacity="0.55"></ellipse>
    <path d="M140 200 C155 215 165 215 180 200" fill="none" stroke="#0b1220" stroke-width="12" stroke-linecap="round" opacity="0.45"></path>
    <path d="M40 250 C15 220 18 188 30 165" fill="none" stroke="#93c5fd" stroke-width="18" stroke-linecap="round" opacity="0.25" filter="url(#blur8)"></path>
  </g>

  <!-- Ghost Right -->
  <g transform="translate(1180,470)" opacity="0.95">
    <path d="M0,150
             C0,68 66,0 150,0
             C234,0 300,68 300,150
             L300,250
             C300,270 280,284 262,274
             L228,256 196,276 150,256 104,276 72,256 38,274
             C20,284 0,270 0,250 Z" fill="url(#ghostFill)" filter="url(#softGlow)"></path>
    <ellipse cx="110" cy="128" rx="18" ry="26" fill="#0b1220" opacity="0.5"></ellipse>
    <ellipse cx="200" cy="128" rx="18" ry="26" fill="#0b1220" opacity="0.5"></ellipse>
    <path d="M150 155 C128 170 128 196 150 210 C172 196 172 170 150 155 Z" fill="#0b1220" opacity="0.42"></path>
  </g>

  <!-- Mouse + click -->
  <g transform="translate(670,520)">
    <!-- Cable -->
    <path d="M210 290 C120 330 80 360 10 380" fill="none" stroke="#111827" stroke-width="16" stroke-linecap="round" opacity="0.8"></path>
    <path d="M210 290 C130 325 88 352 20 372" fill="none" stroke="#334155" stroke-width="6" stroke-linecap="round" opacity="0.7"></path>

    <!-- Shadow -->
    <ellipse cx="360" cy="330" rx="320" ry="70" fill="#020617" opacity="0.55" filter="url(#blur8)"></ellipse>

    <!-- Mouse base -->
    <path d="M120 260
             C120 110 250 0 420 0
             C590 0 720 110 720 260
             C720 330 670 380 600 380
             L240 380
             C170 380 120 330 120 260 Z" fill="url(#mouseSide)" opacity="0.95"></path>
    <!-- Mouse top shell -->
    <path d="M160 255
             C160 130 270 35 420 35
             C570 35 680 130 680 255
             C680 305 645 340 595 340
             L245 340
             C195 340 160 305 160 255 Z" fill="url(#mouseTop)" opacity="0.98"></path>

    <!-- Split line / buttons -->
    <path d="M420 60 L420 330" stroke="#94a3b8" stroke-opacity="0.55" stroke-width="6"></path>
    <path d="M220 185 C250 120 320 85 395 80" fill="none" stroke="#e2e8f0" stroke-opacity="0.35" stroke-width="10" stroke-linecap="round"></path>
    <path d="M620 185 C590 120 520 85 445 80" fill="none" stroke="#e2e8f0" stroke-opacity="0.28" stroke-width="10" stroke-linecap="round"></path>

    <!-- Scroll wheel -->
    <g transform="translate(420,150)">
      <rect x="-22" y="-40" width="44" height="86" rx="22" fill="#0ea5e9" filter="url(#softGlow)"></rect>
      <path d="M-18 -18 C-6 -28 6 -28 18 -18" fill="none" stroke="#93c5fd" stroke-width="6" stroke-linecap="round" opacity="0.65"></path>
      <!-- rings -->
      <circle cx="0" cy="0" r="70" fill="none" stroke="#38bdf8" stroke-width="14" opacity="0.28" filter="url(#softGlow)"></circle>
      <circle cx="0" cy="0" r="105" fill="none" stroke="#38bdf8" stroke-width="14" opacity="0.14" filter="url(#softGlow)"></circle>
    </g>

    <!-- Cursor hand clicking (simplified) -->
    <g transform="translate(520,240)" filter="url(#softGlow)">
      <path d="M35 160
               C30 120 32 92 35 70
               C36 55 52 50 60 62
               L70 105
               L74 50
               C76 34 96 36 98 54
               L104 115
               L114 64
               C118 46 140 50 138 70
               L132 132
               L150 98
               C160 80 180 92 170 112
               L150 156
               C140 176 118 190 94 190
               L78 190
               C55 190 40 180 35 160 Z" fill="#e0f2fe" opacity="0.96"></path>
      <path d="M78 190 L78 240" stroke="#e0f2fe" stroke-width="22" stroke-linecap="round" opacity="0.96"></path>
      <path d="M50 236 C70 270 110 272 135 240" fill="none" stroke="#e0f2fe" stroke-width="22" stroke-linecap="round" opacity="0.96"></path>
    </g>
  </g>

  <!-- Small sparkles -->
  <g opacity="0.75" filter="url(#softGlow)">
    <circle cx="1040" cy="740" r="7" fill="#38bdf8"></circle>
    <circle cx="1080" cy="770" r="4" fill="#7dd3fc"></circle>
    <circle cx="1015" cy="780" r="4" fill="#93c5fd"></circle>
  </g>
</svg>
