
<svg xmlns="http://www.w3.org/2000/svg" width="600" height="400" viewBox="0 0 600 400">
  <defs>
    <linearGradient id="stepbg" x1="0" x2="1" y1="0" y2="1">
      <stop offset="0%" stop-color="#ffffff"/>
      <stop offset="100%" stop-color="#f1f5f9"/>
    </linearGradient>
    <filter id="stepshadow" x="-20%" y="-20%" width="140%" height="140%">
      <feDropShadow dx="0" dy="10" stdDeviation="12" flood-color="#0f172a" flood-opacity="0.12"/>
    </filter>
  </defs>
  <rect width="600" height="400" rx="24" fill="url(#stepbg)"/>
  <g filter="url(#stepshadow)">
    <rect x="70" y="80" width="460" height="240" rx="20" fill="#ffffff" stroke="#e2e8f0"/>
  </g>
  <rect x="100" y="120" width="200" height="14" rx="7" fill="#e2e8f0"/>
  <rect x="100" y="145" width="160" height="10" rx="5" fill="#e2e8f0"/>
  <rect x="100" y="170" width="120" height="10" rx="5" fill="#e2e8f0"/>
  
  <g transform="translate(170 250)">
    <circle cx="0" cy="-48" r="22" fill="#f1f5f9" stroke="#cbd5f5" stroke-width="3"/>
    <rect x="-28" y="-28" width="56" height="70" rx="22" fill="#ffffff" stroke="#e2e8f0" stroke-width="3"/>
    <rect x="-44" y="-10" width="22" height="54" rx="11" fill="#94a3b8" opacity="0.85"/>
    <rect x="22" y="-10" width="22" height="54" rx="11" fill="#0ea5e9" opacity="0.85"/>
    <rect x="-18" y="38" width="36" height="38" rx="14" fill="#e2e8f0"/>
  </g>

  <g transform="translate(400 210)"><rect x="-30" y="-30" width="60" height="60" rx="14" fill="#94a3b8"/><path d="M-10 0 L0 10 L20 -10" stroke="#ffffff" stroke-width="8" fill="none" stroke-linecap="round" stroke-linejoin="round"/></g>
</svg>
