<svg xmlns="http://www.w3.org/2000/svg" width="1280" height="720" viewBox="0 0 1280 720" role="img" aria-labelledby="title desc">
  <title id="title">KeyboardTester.click project preview</title>
  <desc id="desc">Preview of a browser-based testing tools suite with keyboard, mouse, display, audio, camera, and utility diagnostics.</desc>
  <rect width="1280" height="720" fill="#f4f8fb"/>
  <rect x="48" y="44" width="1184" height="632" rx="8" fill="#ffffff" stroke="#cbd5e1"/>
  <rect x="48" y="44" width="1184" height="72" rx="8" fill="#0f172a"/>
  <rect x="48" y="100" width="1184" height="16" fill="#0f172a"/>
  <g transform="translate(82 67)">
    <rect x="0" y="0" width="34" height="24" rx="4" fill="#22c55e"/>
    <rect x="4" y="5" width="26" height="15" rx="2" fill="#38bdf8"/>
    <circle cx="29" cy="3" r="4" fill="#22c55e"/>
    <path d="M28 3l2 2 4-5" fill="none" stroke="#fff" stroke-width="2" stroke-linecap="round"/>
  </g>
  <text x="130" y="86" font-family="Arial, Helvetica, sans-serif" font-size="24" font-weight="700" fill="#ffffff">KeyboardTester<tspan fill="#22c5ff">.click</tspan></text>
  <text x="1000" y="86" font-family="Arial, Helvetica, sans-serif" font-size="16" font-weight="700" fill="#e0f2fe">90+ tools</text>
  <text x="1100" y="86" font-family="Arial, Helvetica, sans-serif" font-size="16" font-weight="700" fill="#bbf7d0">9 languages</text>

  <text x="96" y="176" font-family="Arial, Helvetica, sans-serif" font-size="18" font-weight="700" fill="#0369a1">OPEN SOURCE DEVICE TESTING SUITE</text>
  <text x="96" y="234" font-family="Arial, Helvetica, sans-serif" font-size="48" font-weight="800" fill="#0f172a">Test hardware in the browser.</text>
  <text x="96" y="276" font-family="Arial, Helvetica, sans-serif" font-size="22" fill="#475569">Keyboard, mouse, screen, audio, camera, QR, OCR, gaming, and utility diagnostics.</text>

  <g transform="translate(96 326)">
    <rect x="0" y="0" width="170" height="46" rx="8" fill="#0f172a"/>
    <text x="24" y="30" font-family="Arial, Helvetica, sans-serif" font-size="16" font-weight="700" fill="#ffffff">Use live tools</text>
    <rect x="190" y="0" width="170" height="46" rx="8" fill="#e0f2fe" stroke="#7dd3fc"/>
    <text x="214" y="30" font-family="Arial, Helvetica, sans-serif" font-size="16" font-weight="700" fill="#075985">View source</text>
  </g>

  <g transform="translate(96 422)">
    <rect x="0" y="0" width="172" height="92" rx="8" fill="#eff6ff" stroke="#bfdbfe"/>
    <text x="20" y="36" font-family="Arial, Helvetica, sans-serif" font-size="24" font-weight="800" fill="#1d4ed8">92</text>
    <text x="20" y="65" font-family="Arial, Helvetica, sans-serif" font-size="16" fill="#334155">tools in data</text>
    <rect x="190" y="0" width="172" height="92" rx="8" fill="#f0fdf4" stroke="#bbf7d0"/>
    <text x="210" y="36" font-family="Arial, Helvetica, sans-serif" font-size="24" font-weight="800" fill="#15803d">9</text>
    <text x="210" y="65" font-family="Arial, Helvetica, sans-serif" font-size="16" fill="#334155">languages</text>
    <rect x="380" y="0" width="172" height="92" rx="8" fill="#fff7ed" stroke="#fed7aa"/>
    <text x="400" y="36" font-family="Arial, Helvetica, sans-serif" font-size="24" font-weight="800" fill="#c2410c">0</text>
    <text x="400" y="65" font-family="Arial, Helvetica, sans-serif" font-size="16" fill="#334155">installs</text>
  </g>

  <g transform="translate(740 170)">
    <rect x="0" y="0" width="400" height="290" rx="8" fill="#0f172a"/>
    <rect x="22" y="24" width="356" height="242" rx="8" fill="#f8fafc"/>
    <rect x="44" y="52" width="312" height="38" rx="6" fill="#1f2937"/>
    <rect x="44" y="104" width="48" height="42" rx="6" fill="#1f2937"/>
    <rect x="102" y="104" width="48" height="42" rx="6" fill="#1f2937"/>
    <rect x="160" y="104" width="48" height="42" rx="6" fill="#1f2937"/>
    <rect x="218" y="104" width="48" height="42" rx="6" fill="#1f2937"/>
    <rect x="276" y="104" width="80" height="42" rx="6" fill="#1f2937"/>
    <rect x="44" y="158" width="78" height="42" rx="6" fill="#1f2937"/>
    <rect x="134" y="158" width="48" height="42" rx="6" fill="#1f2937"/>
    <rect x="194" y="158" width="48" height="42" rx="6" fill="#1f2937"/>
    <rect x="254" y="158" width="102" height="42" rx="6" fill="#1f2937"/>
    <rect x="44" y="214" width="170" height="34" rx="6" fill="#22c55e"/>
    <rect x="228" y="214" width="128" height="34" rx="6" fill="#38bdf8"/>
  </g>

  <g transform="translate(742 500)">
    <rect x="0" y="0" width="398" height="86" rx="8" fill="#f8fafc" stroke="#dbeafe"/>
    <text x="24" y="34" font-family="Arial, Helvetica, sans-serif" font-size="18" font-weight="800" fill="#0f172a">Browser diagnostics</text>
    <text x="24" y="62" font-family="Arial, Helvetica, sans-serif" font-size="15" fill="#475569">Privacy-first tests built with PHP and vanilla JavaScript.</text>
  </g>
</svg>
